<mxfile host="app.diagrams.net" agent="Mozilla/5.0 (Windows NT 10.0; Win64; x64) AppleWebKit/537.36 (KHTML, like Gecko) Chrome/128.0.0.0 Safari/537.36 Edg/128.0.0.0" version="24.7.10">
  <diagram name="第 1 页" id="fUVHtIYUATt23Ujlfyqr">
    <mxGraphModel dx="2253" dy="783" grid="1" gridSize="10" guides="1" tooltips="1" connect="1" arrows="1" fold="1" page="1" pageScale="1" pageWidth="827" pageHeight="1169" math="0" shadow="0">
      <root>
        <mxCell id="0" />
        <mxCell id="1" parent="0" />
        <mxCell id="0ha6rgGkcJBHZ5MEM-eb-3" value="" style="edgeStyle=orthogonalEdgeStyle;rounded=0;orthogonalLoop=1;jettySize=auto;html=1;" parent="1" source="0ha6rgGkcJBHZ5MEM-eb-1" edge="1">
          <mxGeometry relative="1" as="geometry">
            <mxPoint x="420" y="180" as="targetPoint" />
          </mxGeometry>
        </mxCell>
        <mxCell id="0ha6rgGkcJBHZ5MEM-eb-1" value="开始" style="strokeWidth=2;html=1;shape=mxgraph.flowchart.start_1;whiteSpace=wrap;" parent="1" vertex="1">
          <mxGeometry x="370" y="80" width="100" height="60" as="geometry" />
        </mxCell>
        <mxCell id="0ha6rgGkcJBHZ5MEM-eb-6" value="" style="edgeStyle=orthogonalEdgeStyle;rounded=0;orthogonalLoop=1;jettySize=auto;html=1;" parent="1" source="0ha6rgGkcJBHZ5MEM-eb-4" target="0ha6rgGkcJBHZ5MEM-eb-5" edge="1">
          <mxGeometry relative="1" as="geometry" />
        </mxCell>
        <mxCell id="0ha6rgGkcJBHZ5MEM-eb-4" value="范水铁拳后台管理" style="rounded=0;whiteSpace=wrap;html=1;" parent="1" vertex="1">
          <mxGeometry x="335" y="170" width="170" height="50" as="geometry" />
        </mxCell>
        <mxCell id="0ha6rgGkcJBHZ5MEM-eb-8" value="" style="edgeStyle=orthogonalEdgeStyle;rounded=0;orthogonalLoop=1;jettySize=auto;html=1;" parent="1" source="0ha6rgGkcJBHZ5MEM-eb-5" target="0ha6rgGkcJBHZ5MEM-eb-7" edge="1">
          <mxGeometry relative="1" as="geometry" />
        </mxCell>
        <mxCell id="0ha6rgGkcJBHZ5MEM-eb-5" value="注册" style="whiteSpace=wrap;html=1;rounded=0;" parent="1" vertex="1">
          <mxGeometry x="360" y="250" width="120" height="60" as="geometry" />
        </mxCell>
        <mxCell id="0ha6rgGkcJBHZ5MEM-eb-12" value="" style="edgeStyle=orthogonalEdgeStyle;rounded=0;orthogonalLoop=1;jettySize=auto;html=1;" parent="1" source="0ha6rgGkcJBHZ5MEM-eb-7" target="0ha6rgGkcJBHZ5MEM-eb-11" edge="1">
          <mxGeometry relative="1" as="geometry" />
        </mxCell>
        <mxCell id="0ha6rgGkcJBHZ5MEM-eb-7" value="登录" style="whiteSpace=wrap;html=1;rounded=0;" parent="1" vertex="1">
          <mxGeometry x="360" y="350" width="120" height="60" as="geometry" />
        </mxCell>
        <mxCell id="0ha6rgGkcJBHZ5MEM-eb-13" style="edgeStyle=orthogonalEdgeStyle;rounded=0;orthogonalLoop=1;jettySize=auto;html=1;entryX=0;entryY=0.5;entryDx=0;entryDy=0;" parent="1" source="0ha6rgGkcJBHZ5MEM-eb-11" target="0ha6rgGkcJBHZ5MEM-eb-7" edge="1">
          <mxGeometry relative="1" as="geometry">
            <Array as="points">
              <mxPoint x="340" y="520" />
              <mxPoint x="340" y="380" />
            </Array>
          </mxGeometry>
        </mxCell>
        <mxCell id="0ha6rgGkcJBHZ5MEM-eb-14" value="失败" style="edgeLabel;html=1;align=center;verticalAlign=middle;resizable=0;points=[];" parent="0ha6rgGkcJBHZ5MEM-eb-13" vertex="1" connectable="0">
          <mxGeometry x="0.12" y="1" relative="1" as="geometry">
            <mxPoint as="offset" />
          </mxGeometry>
        </mxCell>
        <mxCell id="0ha6rgGkcJBHZ5MEM-eb-18" value="" style="edgeStyle=orthogonalEdgeStyle;rounded=0;orthogonalLoop=1;jettySize=auto;html=1;" parent="1" source="0ha6rgGkcJBHZ5MEM-eb-11" target="0ha6rgGkcJBHZ5MEM-eb-17" edge="1">
          <mxGeometry relative="1" as="geometry" />
        </mxCell>
        <mxCell id="0ha6rgGkcJBHZ5MEM-eb-19" value="成功" style="edgeLabel;html=1;align=center;verticalAlign=middle;resizable=0;points=[];" parent="0ha6rgGkcJBHZ5MEM-eb-18" vertex="1" connectable="0">
          <mxGeometry x="-0.2222" y="-1" relative="1" as="geometry">
            <mxPoint as="offset" />
          </mxGeometry>
        </mxCell>
        <mxCell id="0ha6rgGkcJBHZ5MEM-eb-11" value="用户认证" style="rhombus;whiteSpace=wrap;html=1;rounded=0;" parent="1" vertex="1">
          <mxGeometry x="380" y="480" width="80" height="80" as="geometry" />
        </mxCell>
        <mxCell id="0ha6rgGkcJBHZ5MEM-eb-29" value="" style="edgeStyle=orthogonalEdgeStyle;rounded=0;orthogonalLoop=1;jettySize=auto;html=1;exitX=0.5;exitY=1;exitDx=0;exitDy=0;" parent="1" source="0ha6rgGkcJBHZ5MEM-eb-17" target="0ha6rgGkcJBHZ5MEM-eb-28" edge="1">
          <mxGeometry relative="1" as="geometry" />
        </mxCell>
        <mxCell id="0ha6rgGkcJBHZ5MEM-eb-51" style="edgeStyle=orthogonalEdgeStyle;rounded=0;orthogonalLoop=1;jettySize=auto;html=1;exitX=1;exitY=0.5;exitDx=0;exitDy=0;entryX=0;entryY=0.5;entryDx=0;entryDy=0;" parent="1" source="0ha6rgGkcJBHZ5MEM-eb-17" target="0ha6rgGkcJBHZ5MEM-eb-49" edge="1">
          <mxGeometry relative="1" as="geometry" />
        </mxCell>
        <mxCell id="0ha6rgGkcJBHZ5MEM-eb-52" style="edgeStyle=orthogonalEdgeStyle;rounded=0;orthogonalLoop=1;jettySize=auto;html=1;entryX=0;entryY=0.5;entryDx=0;entryDy=0;" parent="1" target="0ha6rgGkcJBHZ5MEM-eb-50" edge="1">
          <mxGeometry relative="1" as="geometry">
            <mxPoint x="480" y="650" as="sourcePoint" />
          </mxGeometry>
        </mxCell>
        <mxCell id="0ha6rgGkcJBHZ5MEM-eb-54" style="edgeStyle=orthogonalEdgeStyle;rounded=0;orthogonalLoop=1;jettySize=auto;html=1;entryX=1;entryY=0.5;entryDx=0;entryDy=0;" parent="1" target="0ha6rgGkcJBHZ5MEM-eb-48" edge="1">
          <mxGeometry relative="1" as="geometry">
            <mxPoint x="360" y="650" as="sourcePoint" />
          </mxGeometry>
        </mxCell>
        <mxCell id="0ha6rgGkcJBHZ5MEM-eb-57" style="edgeStyle=orthogonalEdgeStyle;rounded=0;orthogonalLoop=1;jettySize=auto;html=1;exitX=0.5;exitY=1;exitDx=0;exitDy=0;entryX=0.5;entryY=0;entryDx=0;entryDy=0;" parent="1" source="0ha6rgGkcJBHZ5MEM-eb-17" target="0ha6rgGkcJBHZ5MEM-eb-56" edge="1">
          <mxGeometry relative="1" as="geometry" />
        </mxCell>
        <mxCell id="0ha6rgGkcJBHZ5MEM-eb-67" style="edgeStyle=orthogonalEdgeStyle;rounded=0;orthogonalLoop=1;jettySize=auto;html=1;exitX=0.5;exitY=1;exitDx=0;exitDy=0;entryX=0.5;entryY=0;entryDx=0;entryDy=0;" parent="1" source="0ha6rgGkcJBHZ5MEM-eb-17" target="0ha6rgGkcJBHZ5MEM-eb-24" edge="1">
          <mxGeometry relative="1" as="geometry" />
        </mxCell>
        <mxCell id="0ha6rgGkcJBHZ5MEM-eb-74" style="edgeStyle=orthogonalEdgeStyle;rounded=0;orthogonalLoop=1;jettySize=auto;html=1;exitX=0;exitY=0.5;exitDx=0;exitDy=0;entryX=0.992;entryY=0.617;entryDx=0;entryDy=0;entryPerimeter=0;" parent="1" source="0ha6rgGkcJBHZ5MEM-eb-17" target="0ha6rgGkcJBHZ5MEM-eb-20" edge="1">
          <mxGeometry relative="1" as="geometry" />
        </mxCell>
        <mxCell id="0ha6rgGkcJBHZ5MEM-eb-17" value="进入后台管理" style="whiteSpace=wrap;html=1;rounded=0;" parent="1" vertex="1">
          <mxGeometry x="360" y="620" width="120" height="60" as="geometry" />
        </mxCell>
        <mxCell id="0ha6rgGkcJBHZ5MEM-eb-80" style="edgeStyle=orthogonalEdgeStyle;rounded=0;orthogonalLoop=1;jettySize=auto;html=1;exitX=0;exitY=0.5;exitDx=0;exitDy=0;entryX=1;entryY=0.25;entryDx=0;entryDy=0;" parent="1" source="0ha6rgGkcJBHZ5MEM-eb-20" target="0ha6rgGkcJBHZ5MEM-eb-82" edge="1">
          <mxGeometry relative="1" as="geometry" />
        </mxCell>
        <mxCell id="0ha6rgGkcJBHZ5MEM-eb-20" value="案件中心" style="whiteSpace=wrap;html=1;rounded=0;" parent="1" vertex="1">
          <mxGeometry x="-10" y="200" width="120" height="60" as="geometry" />
        </mxCell>
        <mxCell id="0ha6rgGkcJBHZ5MEM-eb-24" value="个人中心" style="whiteSpace=wrap;html=1;rounded=0;" parent="1" vertex="1">
          <mxGeometry x="360" y="770" width="120" height="60" as="geometry" />
        </mxCell>
        <mxCell id="0ha6rgGkcJBHZ5MEM-eb-38" style="edgeStyle=orthogonalEdgeStyle;rounded=0;orthogonalLoop=1;jettySize=auto;html=1;exitX=0.5;exitY=1;exitDx=0;exitDy=0;" parent="1" source="0ha6rgGkcJBHZ5MEM-eb-28" target="0ha6rgGkcJBHZ5MEM-eb-34" edge="1">
          <mxGeometry relative="1" as="geometry" />
        </mxCell>
        <mxCell id="0ha6rgGkcJBHZ5MEM-eb-41" style="edgeStyle=orthogonalEdgeStyle;rounded=0;orthogonalLoop=1;jettySize=auto;html=1;exitX=0.5;exitY=1;exitDx=0;exitDy=0;" parent="1" source="0ha6rgGkcJBHZ5MEM-eb-28" target="0ha6rgGkcJBHZ5MEM-eb-36" edge="1">
          <mxGeometry relative="1" as="geometry" />
        </mxCell>
        <mxCell id="0ha6rgGkcJBHZ5MEM-eb-43" style="edgeStyle=orthogonalEdgeStyle;rounded=0;orthogonalLoop=1;jettySize=auto;html=1;exitX=0.5;exitY=1;exitDx=0;exitDy=0;" parent="1" source="0ha6rgGkcJBHZ5MEM-eb-28" target="0ha6rgGkcJBHZ5MEM-eb-35" edge="1">
          <mxGeometry relative="1" as="geometry" />
        </mxCell>
        <mxCell id="0ha6rgGkcJBHZ5MEM-eb-45" style="edgeStyle=orthogonalEdgeStyle;rounded=0;orthogonalLoop=1;jettySize=auto;html=1;exitX=0.5;exitY=1;exitDx=0;exitDy=0;entryX=0.5;entryY=0;entryDx=0;entryDy=0;" parent="1" source="0ha6rgGkcJBHZ5MEM-eb-28" target="0ha6rgGkcJBHZ5MEM-eb-31" edge="1">
          <mxGeometry relative="1" as="geometry" />
        </mxCell>
        <mxCell id="0ha6rgGkcJBHZ5MEM-eb-47" style="edgeStyle=orthogonalEdgeStyle;rounded=0;orthogonalLoop=1;jettySize=auto;html=1;exitX=0.5;exitY=1;exitDx=0;exitDy=0;entryX=0.5;entryY=0;entryDx=0;entryDy=0;" parent="1" source="0ha6rgGkcJBHZ5MEM-eb-28" target="0ha6rgGkcJBHZ5MEM-eb-37" edge="1">
          <mxGeometry relative="1" as="geometry" />
        </mxCell>
        <mxCell id="0ha6rgGkcJBHZ5MEM-eb-28" value="系统管理" style="whiteSpace=wrap;html=1;rounded=0;" parent="1" vertex="1">
          <mxGeometry x="40" y="770" width="120" height="60" as="geometry" />
        </mxCell>
        <mxCell id="0ha6rgGkcJBHZ5MEM-eb-31" value="用户管理" style="whiteSpace=wrap;html=1;rounded=0;" parent="1" vertex="1">
          <mxGeometry x="-220" y="900" width="120" height="60" as="geometry" />
        </mxCell>
        <mxCell id="0ha6rgGkcJBHZ5MEM-eb-34" value="角色管理" style="whiteSpace=wrap;html=1;rounded=0;" parent="1" vertex="1">
          <mxGeometry x="-90" y="900" width="120" height="60" as="geometry" />
        </mxCell>
        <mxCell id="0ha6rgGkcJBHZ5MEM-eb-36" value="企业/团队管理" style="whiteSpace=wrap;html=1;rounded=0;" parent="1" vertex="1">
          <mxGeometry x="170" y="900" width="120" height="60" as="geometry" />
        </mxCell>
        <mxCell id="0ha6rgGkcJBHZ5MEM-eb-37" value="组织架构" style="whiteSpace=wrap;html=1;rounded=0;" parent="1" vertex="1">
          <mxGeometry x="300" y="900" width="120" height="60" as="geometry" />
        </mxCell>
        <mxCell id="0ha6rgGkcJBHZ5MEM-eb-46" value="" style="edgeStyle=orthogonalEdgeStyle;rounded=0;orthogonalLoop=1;jettySize=auto;html=1;exitX=0.5;exitY=1;exitDx=0;exitDy=0;" parent="1" source="0ha6rgGkcJBHZ5MEM-eb-28" target="0ha6rgGkcJBHZ5MEM-eb-35" edge="1">
          <mxGeometry relative="1" as="geometry">
            <mxPoint x="420" y="800" as="sourcePoint" />
            <mxPoint x="710" y="1010" as="targetPoint" />
          </mxGeometry>
        </mxCell>
        <mxCell id="0ha6rgGkcJBHZ5MEM-eb-35" value="部门管理" style="whiteSpace=wrap;html=1;rounded=0;" parent="1" vertex="1">
          <mxGeometry x="40" y="900" width="120" height="60" as="geometry" />
        </mxCell>
        <mxCell id="0ha6rgGkcJBHZ5MEM-eb-69" value="" style="edgeStyle=orthogonalEdgeStyle;rounded=0;orthogonalLoop=1;jettySize=auto;html=1;entryX=1;entryY=0.633;entryDx=0;entryDy=0;entryPerimeter=0;" parent="1" source="0ha6rgGkcJBHZ5MEM-eb-48" target="0ha6rgGkcJBHZ5MEM-eb-68" edge="1">
          <mxGeometry relative="1" as="geometry" />
        </mxCell>
        <mxCell id="0ha6rgGkcJBHZ5MEM-eb-72" style="edgeStyle=orthogonalEdgeStyle;rounded=0;orthogonalLoop=1;jettySize=auto;html=1;entryX=1;entryY=0.5;entryDx=0;entryDy=0;exitX=0;exitY=0.5;exitDx=0;exitDy=0;" parent="1" source="0ha6rgGkcJBHZ5MEM-eb-48" target="0ha6rgGkcJBHZ5MEM-eb-71" edge="1">
          <mxGeometry relative="1" as="geometry">
            <mxPoint x="-40" y="560" as="sourcePoint" />
            <mxPoint x="-210" y="695" as="targetPoint" />
          </mxGeometry>
        </mxCell>
        <mxCell id="0ha6rgGkcJBHZ5MEM-eb-48" value="研判中心" style="whiteSpace=wrap;html=1;rounded=0;" parent="1" vertex="1">
          <mxGeometry y="590" width="120" height="60" as="geometry" />
        </mxCell>
        <mxCell id="0ha6rgGkcJBHZ5MEM-eb-88" value="" style="edgeStyle=orthogonalEdgeStyle;rounded=0;orthogonalLoop=1;jettySize=auto;html=1;entryX=0;entryY=0.75;entryDx=0;entryDy=0;" parent="1" source="0ha6rgGkcJBHZ5MEM-eb-49" target="0ha6rgGkcJBHZ5MEM-eb-90" edge="1">
          <mxGeometry relative="1" as="geometry" />
        </mxCell>
        <mxCell id="0ha6rgGkcJBHZ5MEM-eb-49" value="消息中心" style="whiteSpace=wrap;html=1;rounded=0;" parent="1" vertex="1">
          <mxGeometry x="600" y="210" width="120" height="60" as="geometry" />
        </mxCell>
        <mxCell id="0ha6rgGkcJBHZ5MEM-eb-64" value="" style="edgeStyle=orthogonalEdgeStyle;rounded=0;orthogonalLoop=1;jettySize=auto;html=1;entryX=0;entryY=0.5;entryDx=0;entryDy=0;" parent="1" source="0ha6rgGkcJBHZ5MEM-eb-50" target="0ha6rgGkcJBHZ5MEM-eb-63" edge="1">
          <mxGeometry relative="1" as="geometry" />
        </mxCell>
        <mxCell id="0ha6rgGkcJBHZ5MEM-eb-66" style="edgeStyle=orthogonalEdgeStyle;rounded=0;orthogonalLoop=1;jettySize=auto;html=1;exitX=1;exitY=0.5;exitDx=0;exitDy=0;entryX=0;entryY=0.5;entryDx=0;entryDy=0;" parent="1" source="0ha6rgGkcJBHZ5MEM-eb-50" target="0ha6rgGkcJBHZ5MEM-eb-65" edge="1">
          <mxGeometry relative="1" as="geometry" />
        </mxCell>
        <mxCell id="0ha6rgGkcJBHZ5MEM-eb-50" value="模板中心" style="whiteSpace=wrap;html=1;rounded=0;" parent="1" vertex="1">
          <mxGeometry x="600" y="585" width="120" height="60" as="geometry" />
        </mxCell>
        <mxCell id="0ha6rgGkcJBHZ5MEM-eb-59" value="" style="edgeStyle=orthogonalEdgeStyle;rounded=0;orthogonalLoop=1;jettySize=auto;html=1;" parent="1" source="0ha6rgGkcJBHZ5MEM-eb-56" target="0ha6rgGkcJBHZ5MEM-eb-58" edge="1">
          <mxGeometry relative="1" as="geometry" />
        </mxCell>
        <mxCell id="0ha6rgGkcJBHZ5MEM-eb-62" style="edgeStyle=orthogonalEdgeStyle;rounded=0;orthogonalLoop=1;jettySize=auto;html=1;exitX=0.5;exitY=1;exitDx=0;exitDy=0;" parent="1" source="0ha6rgGkcJBHZ5MEM-eb-56" target="0ha6rgGkcJBHZ5MEM-eb-61" edge="1">
          <mxGeometry relative="1" as="geometry" />
        </mxCell>
        <mxCell id="0ha6rgGkcJBHZ5MEM-eb-56" value="日志中心" style="whiteSpace=wrap;html=1;rounded=0;" parent="1" vertex="1">
          <mxGeometry x="600" y="770" width="120" height="60" as="geometry" />
        </mxCell>
        <mxCell id="0ha6rgGkcJBHZ5MEM-eb-58" value="登录日志" style="whiteSpace=wrap;html=1;rounded=0;" parent="1" vertex="1">
          <mxGeometry x="540" y="890" width="120" height="60" as="geometry" />
        </mxCell>
        <mxCell id="0ha6rgGkcJBHZ5MEM-eb-61" value="行为日志" style="whiteSpace=wrap;html=1;rounded=0;" parent="1" vertex="1">
          <mxGeometry x="690" y="890" width="120" height="60" as="geometry" />
        </mxCell>
        <mxCell id="0ha6rgGkcJBHZ5MEM-eb-63" value="系统模板" style="whiteSpace=wrap;html=1;rounded=0;" parent="1" vertex="1">
          <mxGeometry x="827" y="535" width="120" height="60" as="geometry" />
        </mxCell>
        <mxCell id="0ha6rgGkcJBHZ5MEM-eb-65" value="自定义模板" style="whiteSpace=wrap;html=1;rounded=0;" parent="1" vertex="1">
          <mxGeometry x="827" y="595" width="120" height="60" as="geometry" />
        </mxCell>
        <mxCell id="0ha6rgGkcJBHZ5MEM-eb-68" value="文档管理" style="whiteSpace=wrap;html=1;rounded=0;" parent="1" vertex="1">
          <mxGeometry x="-270" y="550" width="120" height="60" as="geometry" />
        </mxCell>
        <mxCell id="0ha6rgGkcJBHZ5MEM-eb-71" value="研判模型管理" style="whiteSpace=wrap;html=1;rounded=0;" parent="1" vertex="1">
          <mxGeometry x="-270" y="655" width="120" height="60" as="geometry" />
        </mxCell>
        <mxCell id="0ha6rgGkcJBHZ5MEM-eb-75" value="案件创建" style="whiteSpace=wrap;html=1;rounded=0;" parent="1" vertex="1">
          <mxGeometry x="-270" y="65" width="120" height="60" as="geometry" />
        </mxCell>
        <mxCell id="0ha6rgGkcJBHZ5MEM-eb-78" value="案件状态跟踪" style="whiteSpace=wrap;html=1;rounded=0;" parent="1" vertex="1">
          <mxGeometry x="-270" y="185" width="120" height="60" as="geometry" />
        </mxCell>
        <mxCell id="0ha6rgGkcJBHZ5MEM-eb-77" value="案件查询检索" style="whiteSpace=wrap;html=1;rounded=0;" parent="1" vertex="1">
          <mxGeometry x="-270" y="125" width="120" height="60" as="geometry" />
        </mxCell>
        <mxCell id="0ha6rgGkcJBHZ5MEM-eb-82" value="案件分配与流转" style="whiteSpace=wrap;html=1;rounded=0;" parent="1" vertex="1">
          <mxGeometry x="-270" y="245" width="120" height="60" as="geometry" />
        </mxCell>
        <mxCell id="0ha6rgGkcJBHZ5MEM-eb-83" value="案件统计分析" style="whiteSpace=wrap;html=1;rounded=0;" parent="1" vertex="1">
          <mxGeometry x="-270" y="305" width="120" height="60" as="geometry" />
        </mxCell>
        <mxCell id="0ha6rgGkcJBHZ5MEM-eb-84" value="案件提醒与通知" style="whiteSpace=wrap;html=1;rounded=0;" parent="1" vertex="1">
          <mxGeometry x="-270" y="365" width="120" height="60" as="geometry" />
        </mxCell>
        <mxCell id="0ha6rgGkcJBHZ5MEM-eb-86" value="案件文档管理" style="whiteSpace=wrap;html=1;rounded=0;" parent="1" vertex="1">
          <mxGeometry x="-270" y="420" width="120" height="60" as="geometry" />
        </mxCell>
        <mxCell id="0ha6rgGkcJBHZ5MEM-eb-87" value="消息管理" style="whiteSpace=wrap;html=1;rounded=0;" parent="1" vertex="1">
          <mxGeometry x="810" y="70" width="120" height="60" as="geometry" />
        </mxCell>
        <mxCell id="0ha6rgGkcJBHZ5MEM-eb-89" value="通知管理" style="whiteSpace=wrap;html=1;rounded=0;" parent="1" vertex="1">
          <mxGeometry x="810" y="130" width="120" height="60" as="geometry" />
        </mxCell>
        <mxCell id="0ha6rgGkcJBHZ5MEM-eb-90" value="单聊" style="whiteSpace=wrap;html=1;rounded=0;" parent="1" vertex="1">
          <mxGeometry x="810" y="190" width="120" height="60" as="geometry" />
        </mxCell>
        <mxCell id="0ha6rgGkcJBHZ5MEM-eb-91" value="群聊" style="whiteSpace=wrap;html=1;rounded=0;" parent="1" vertex="1">
          <mxGeometry x="810" y="250" width="120" height="60" as="geometry" />
        </mxCell>
        <mxCell id="0ha6rgGkcJBHZ5MEM-eb-92" value="分组管理" style="whiteSpace=wrap;html=1;rounded=0;" parent="1" vertex="1">
          <mxGeometry x="810" y="310" width="120" height="60" as="geometry" />
        </mxCell>
        <mxCell id="0ha6rgGkcJBHZ5MEM-eb-96" value="" style="edgeStyle=orthogonalEdgeStyle;rounded=0;orthogonalLoop=1;jettySize=auto;html=1;entryX=0;entryY=0.25;entryDx=0;entryDy=0;" parent="1" source="0ha6rgGkcJBHZ5MEM-eb-93" target="0ha6rgGkcJBHZ5MEM-eb-98" edge="1">
          <mxGeometry relative="1" as="geometry" />
        </mxCell>
        <mxCell id="0ha6rgGkcJBHZ5MEM-eb-93" value="文件管理" style="whiteSpace=wrap;html=1;rounded=0;" parent="1" vertex="1">
          <mxGeometry x="810" y="370" width="120" height="60" as="geometry" />
        </mxCell>
        <mxCell id="0ha6rgGkcJBHZ5MEM-eb-95" value="图片" style="whiteSpace=wrap;html=1;rounded=0;" parent="1" vertex="1">
          <mxGeometry x="1050" y="260" width="120" height="60" as="geometry" />
        </mxCell>
        <mxCell id="0ha6rgGkcJBHZ5MEM-eb-97" value="视频" style="whiteSpace=wrap;html=1;rounded=0;" parent="1" vertex="1">
          <mxGeometry x="1050" y="320" width="120" height="60" as="geometry" />
        </mxCell>
        <mxCell id="0ha6rgGkcJBHZ5MEM-eb-98" value="语音" style="whiteSpace=wrap;html=1;rounded=0;" parent="1" vertex="1">
          <mxGeometry x="1050" y="380" width="120" height="60" as="geometry" />
        </mxCell>
        <mxCell id="0ha6rgGkcJBHZ5MEM-eb-99" value="其他" style="whiteSpace=wrap;html=1;rounded=0;" parent="1" vertex="1">
          <mxGeometry x="1050" y="440" width="120" height="60" as="geometry" />
        </mxCell>
      </root>
    </mxGraphModel>
  </diagram>
</mxfile>
